<?xml version="1.0" standalone="no"?><!DOCTYPE svg PUBLIC "-//W3C//DTD SVG 1.1//EN" "http://www.w3.org/Graphics/SVG/1.1/DTD/svg11.dtd"><svg t="1695899157939" class="icon" viewBox="0 0 1024 1024" version="1.1" xmlns="http://www.w3.org/2000/svg" p-id="15144" xmlns:xlink="http://www.w3.org/1999/xlink" width="200" height="200"><path d="M555.732 359.11l2.608 114.667h-98.68l2.608-114.667zM561.166 598l2.608 114.666H454.226L456.835 598z" fill="#E55454" p-id="15145"></path><path d="M441.8 225.333h134.4v133.778H441.8z" fill="#FFF0BA" p-id="15146"></path><path d="M461 225.333h153.6L540.355 168z" fill="#E55454" p-id="15147"></path><path d="M649.23 286.577l201.415 40.097-1.875 9.415-201.415-40.096 1.875-9.416z m-280.46 0l1.875 9.416-201.415 40.096-1.875-9.415 201.415-40.097z m480-66.888l1.875 9.415L649.23 269.2l-1.875-9.415L848.77 219.69z m-679.54 0l201.415 40.096-1.875 9.415-201.415-40.096 1.875-9.415zM511.938 144.037l130.14 100.496h-65.879l0.001 114.578h-1.263L585.807 837H618.8v14h14.8v20H384v-20h14v-14h34.192l10.87-477.89-1.262 0.001V244.533h-68.96l139.098-100.496z m45.06 100.496h-96l0.001 95.374h1.705L451.394 837.1l51.605 0.034L503 779h38v58.16l25.605 0.017-11.31-497.27H557l-0.003-95.374z m-45.444-76.534L432.2 225.333l153.599-0.001-74.245-57.333z" fill="#30699A" p-id="15148"></path><path d="M432.2 359.111v-66.889h43.52v16.722h17.92v-16.722h43.52v16.722h17.92v-16.722h30.72v66.89z" fill="#B42E2E" p-id="15149"></path></svg>