<?xml version="1.0" standalone="no"?><!DOCTYPE svg PUBLIC "-//W3C//DTD SVG 1.1//EN" "http://www.w3.org/Graphics/SVG/1.1/DTD/svg11.dtd"><svg t="1696060602737" class="icon" viewBox="0 0 1024 1024" version="1.1" xmlns="http://www.w3.org/2000/svg" p-id="4041" xmlns:xlink="http://www.w3.org/1999/xlink" width="200" height="200"><path d="M488.530677 435.960613a46.476627 46.476627 0 0 1-9.109419-92.953254l208.587102-41.643057a46.476627 46.476627 0 0 1 18.590651 91.094188L497.640096 435.031081a50.56657 50.56657 0 0 1-9.109419 0.929532z" fill="#4095E5" opacity=".3" p-id="4042"></path><path d="M170.07283 782.304437a74.362603 74.362603 0 1 1-52.611542 21.751061A74.362603 74.362603 0 0 1 170.07283 782.304437m0-92.953254a167.315857 167.315857 0 1 0 118.236539 49.079318A166.386324 166.386324 0 0 0 170.07283 689.351183zM853.836965 642.874556a74.362603 74.362603 0 0 1 52.611541 21.751062 74.362603 74.362603 0 0 1 0 105.037176 74.362603 74.362603 0 1 1-52.611541-126.788238m0-92.953254a167.315857 167.315857 0 1 0 118.422445 48.893412 167.315857 167.315857 0 0 0-118.422445-48.893412z" fill="#4095E5" p-id="4043"></path><path d="M291.097966 906.489984a46.476627 46.476627 0 0 1-46.476627-46.476627V183.127763A46.476627 46.476627 0 0 1 281.616734 137.580669L965.380869 0.939386a46.476627 46.476627 0 0 1 55.771952 45.547094v676.699687a46.476627 46.476627 0 0 1-92.953253 0V103.187965L337.388687 221.238597v638.77476a46.476627 46.476627 0 0 1-46.290721 46.476627z" fill="#4095E5" p-id="4044"></path></svg>